<?xml version="1.0" encoding="UTF-8" standalone="no"?>
<!-- Created with Inkscape (http://www.inkscape.org/) -->

<svg
   xmlns:dc="http://purl.org/dc/elements/1.1/"
   xmlns:cc="http://creativecommons.org/ns#"
   xmlns:rdf="http://www.w3.org/1999/02/22-rdf-syntax-ns#"
   xmlns:svg="http://www.w3.org/2000/svg"
   xmlns="http://www.w3.org/2000/svg"
   xmlns:sodipodi="http://sodipodi.sourceforge.net/DTD/sodipodi-0.dtd"
   xmlns:inkscape="http://www.inkscape.org/namespaces/inkscape"
   width="96.301826mm"
   height="92.194962mm"
   viewBox="0 0 96.301826 92.194962"
   version="1.1"
   id="svg8"
   inkscape:version="0.92.3 (2405546, 2018-03-11)"
   sodipodi:docname="easyventurelogo.svg">
  <defs
     id="defs2" />
  <sodipodi:namedview
     id="base"
     pagecolor="#ffffff"
     bordercolor="#666666"
     borderopacity="1.0"
     inkscape:pageopacity="0.0"
     inkscape:pageshadow="2"
     inkscape:zoom="1.4142136"
     inkscape:cx="261.28837"
     inkscape:cy="158.6018"
     inkscape:document-units="mm"
     inkscape:current-layer="g4676"
     showgrid="false"
     inkscape:window-width="1366"
     inkscape:window-height="705"
     inkscape:window-x="-8"
     inkscape:window-y="-8"
     inkscape:window-maximized="1" />
  <metadata
     id="metadata5">
    <rdf:RDF>
      <cc:Work
         rdf:about="">
        <dc:format>image/svg+xml</dc:format>
        <dc:type
           rdf:resource="http://purl.org/dc/dcmitype/StillImage" />
        <dc:title></dc:title>
      </cc:Work>
    </rdf:RDF>
  </metadata>
  <g
     inkscape:label="Ebene 1"
     inkscape:groupmode="layer"
     id="layer1"
     transform="translate(-30.524856,-25.50818)">
    <g
       id="g4596"
       transform="matrix(3.2415493,0,0,3.2240333,-24.020372,-175.33446)">
      <g
         id="g4676">
        <path
           d="m 31.377182,79.209299 h 0.257372 l 2.9083,-5.896668 c 0.716781,-1.419737 1.510772,-2.818304 1.461871,-4.5359 -0.0206,-0.712135 -0.214906,-1.481726 -0.485146,-2.116752 -1.797741,-4.219898 -7.138202,-3.810154 -8.288654,0.755982 -0.114526,0.455104 -0.234208,1.344139 -0.205897,1.81436 0.09781,1.566398 0.859622,2.91356 1.519779,4.233505 z m 1.672923,-12.246926 -2.031949,1.401593 -1.185198,2.378323 c -1.024338,-0.641074 -0.920103,-2.440316 -0.357746,-3.463915 0.714207,-1.297269 2.795056,-1.696425 3.574893,-0.316001 z m -3.088461,3.931111 2.024229,-1.268538 1.192917,-2.511377 c 1.142731,0.737839 0.9008,2.942287 0.101667,3.911456 -0.494155,0.598739 -1.213508,0.798319 -1.903264,0.769591 -0.6756,-0.02873 -1.08997,-0.182946 -1.415544,-0.901132 z m 2.573717,-3.175129 c -0.01931,0.205628 -0.02703,0.402183 -0.08364,0.601762 -0.386056,1.362283 -1.536507,0.134559 -0.428522,-0.430908 l 0.512168,-0.170847 z"
           id="Auswahl"
           inkscape:connector-curvature="0"
           style="fill:#396639;fill-opacity:1;stroke:#000000;stroke-width:0.24748342;stroke-miterlimit:4;stroke-dasharray:none;stroke-opacity:1"
           sodipodi:nodetypes="cccccccccccccccccccccccccc" />
        <path
           d="m 36.000035,73.416451 c -0.09398,2.240075 2.931488,0.498973 4.220187,1.890941 0.682719,0.735653 0.936755,2.289899 1.166974,3.38977 0.492193,2.347597 1.399839,5.997009 1.550672,8.294119 H 23.355996 c -0.603333,0 -1.759722,0.118997 -2.127544,-0.576982 -0.444561,-0.667136 -0.103202,-1.929284 0,-2.668542 0.378406,-1.611944 1.481871,-7.572891 2.238684,-8.438365 1.307223,-1.496546 3.156916,0.706804 3.858158,-2.019437 -1.07171,0 -4.1069,-0.328158 -4.837251,0.627469 -0.455146,0.595012 -0.767398,2.47381 -0.947339,3.339284 l -1.471287,6.851663 c -0.182588,0.869079 -0.682719,2.672148 -0.367822,3.494348 0.383699,0.995294 1.630059,0.829411 2.331302,0.833018 h 19.581872 c 0.719766,-0.0035 1.937018,0.158669 2.352471,-0.833018 0.383699,-0.923171 -0.254035,-3.209463 -0.463085,-4.215576 L 42.054038,76.53348 c -0.174649,-0.760895 -0.428684,-2.134834 -0.852076,-2.668542 -0.465731,-0.591407 -1.111404,-0.558952 -1.704152,-0.576983 -1.270777,0.0037 -2.408324,-0.224164 -3.497775,0.128496 z"
           id="Auswahl-1"
           inkscape:connector-curvature="0"
           style="fill:#396639;fill-opacity:1;stroke:#000000;stroke-width:0.30891034;stroke-opacity:1"
           sodipodi:nodetypes="ccccscccccccccccccccc" />
        <path
           style="fill:none;stroke:#396639;stroke-width:0.76499999;stroke-linecap:butt;stroke-linejoin:miter;stroke-miterlimit:4;stroke-dasharray:1.53, 1.53000000000000003;stroke-dashoffset:0;stroke-opacity:1"
           d="m 23.874287,84.274924 c 2.630604,-7.38973 7.088442,3.817493 11.310937,-3.571874"
           id="path4589"
           inkscape:connector-curvature="0" />
        <path
           inkscape:transform-center-y="-1.6168039e-006"
           transform="matrix(0.08162249,0,0,0.08206594,15.008853,59.597094)"
           d="m 271.17545,250.51911 c 13.6842,-8.04954 -28.59968,-11.89054 -13.2316,-7.90623 15.36807,3.98432 -23.45576,-13.2026 -15.40623,0.48161 8.04954,13.6842 11.89054,-28.59968 7.90623,-13.23161 -3.98432,15.36808 13.2026,-23.45575 -0.4816,-15.40622 -13.68421,8.04953 28.59967,11.89054 13.2316,7.90622 -15.36808,-3.98431 23.45576,13.20261 15.40622,-0.4816 -8.04953,-13.6842 -11.89054,28.59968 -7.90622,13.2316 3.98431,-15.36807 -13.20261,23.45576 0.4816,15.40623 z"
           inkscape:randomized="0"
           inkscape:rounded="-1.03"
           inkscape:flatsided="false"
           sodipodi:arg2="1.8244704"
           sodipodi:arg1="1.0390723"
           sodipodi:r2="10.459744"
           sodipodi:r1="20.919489"
           sodipodi:cy="232.48788"
           sodipodi:cx="260.56885"
           sodipodi:sides="4"
           id="path4622"
           style="fill:#396639;fill-opacity:1;stroke:#396639;stroke-width:2.89133859;stroke-miterlimit:4;stroke-dasharray:none;stroke-dashoffset:0;stroke-opacity:1"
           sodipodi:type="star" />
        <g
           aria-label="E"
           transform="matrix(0.08162249,0,0,0.08206594,39.926066,71.486847)"
           style="font-style:normal;font-weight:normal;font-size:40px;line-height:1.25;font-family:sans-serif;letter-spacing:0px;word-spacing:0px;fill:#396639;fill-opacity:1;stroke:#000000;stroke-opacity:1;stroke-width:3.64724421;stroke-miterlimit:4;stroke-dasharray:none"
           id="flowRoot4624">
          <path
             d="m -158.20833,80.996629 -15.20834,-0.08333 v 1.041666 q 0,3.041667 1.75,5.541667 1.75,2.458333 3.875,2.458333 2.16667,0 6.25,-1.583333 4.125,-1.583333 9.375,-4.541667 l 1.45834,-0.875 q 1.5,-0.833333 2.04166,-1.25 2.45834,-1.541666 3.08334,-1.541666 0.75,0 0.75,1.375 0,1.5 -0.54167,3.416666 -0.54167,1.916667 -1.375,3.708334 -0.83333,1.75 -1.66667,2.5 -2.375,2.125 -8.125,4.625 -5.75,2.5 -11.66666,3.916667 -2,0.416667 -3.66667,0.416667 -5.70833,0 -10.45833,-2.291667 -4.70834,-2.333334 -7.33334,-6.375 -2.58333,-4.041667 -2.58333,-9.000001 0,-4.083333 1.70833,-9 1.70834,-4.916667 4.79167,-9.791667 3.08333,-4.916667 6.95833,-8.916667 3.375,-3.5 7.54167,-6.333333 4.16667,-2.875001 8.08333,-4.416667 3.95834,-1.541667 7.25,-1.541667 5.16667,0 8.83334,2.958333 3.70833,2.916667 3.70833,7.083334 0,1.833333 -0.66667,4 -0.66666,2.166667 -1.79166,3.791667 -1.16667,1.75 -3.45834,3.416667 -2.29166,1.666666 -5.16666,2.875 -3.45834,1.375 -5.91667,1.375 -2.45833,0 -2.45833,-1.208334 0,-0.708333 1.375,-2.208333 1.5,-1.333333 2.875,-3.666667 1.33333,-2.458333 2.33333,-5.791667 1,-3.333333 1,-5.208333 0,-1.541667 -0.91667,-1.541667 -1.45833,0 -5.25,3.208334 -3.79166,3.208333 -6,6.333333 -2.08333,2.916667 -3.41666,5.958334 -1.33334,3 -1.79167,5.916667 h 22.25 q 3.66667,0 3.66667,1.875 0,1.75 -4.08334,5.708333 -4.04166,3.666667 -7.41666,3.666667 z"
             style="font-style:normal;font-variant:normal;font-weight:normal;font-stretch:normal;font-size:85.33333588px;font-family:Forte;-inkscape-font-specification:Forte;fill:#396639;fill-opacity:1;stroke:#000000;stroke-opacity:1;stroke-width:3.64724421;stroke-miterlimit:4;stroke-dasharray:none"
             id="path4678" />
        </g>
        <g
           aria-label="V"
           transform="matrix(0.08162249,0,0,0.08206594,52.856218,77.585226)"
           style="font-style:normal;font-weight:normal;font-size:40px;line-height:1.25;font-family:sans-serif;letter-spacing:0px;word-spacing:0px;fill:#396639;fill-opacity:1;stroke:#000000;stroke-opacity:1;stroke-width:3.64724421;stroke-miterlimit:4;stroke-dasharray:none"
           id="flowRoot4624-9">
          <path
             d="m -158.45833,49.454961 q 2.375,-2.291666 4.58333,-3.875 2.25,-1.583333 3.08333,-1.583333 1.29167,0 1.29167,2.458333 0,2.875 -0.66667,6.25 -0.625,3.333334 -1.75,6.541667 -1.83333,5.458334 -4.83333,12.125001 -3,6.625 -5.83333,11.708333 -1.83334,3.208334 -4.75,7.750001 -2.29167,3.5 -4.08334,5.166666 -1.75,1.625 -4.20833,2.666667 -2.16667,0.833333 -3.75,1.125 -1.91667,0.333334 -3.08333,0.333334 -2.08334,0 -3.16667,-1.000001 -1.29167,-1.375 -2.375,-4.791666 -1.29167,-4.166667 -2.625,-11.000001 -1.29167,-6.833333 -1.75,-11.875 -0.33333,-3.5 -0.33333,-9.833334 0,-11.541667 2.5,-14.041667 0.875,-0.875 3.25,-2.041667 2.41666,-1.208333 4.75,-1.833333 1.83333,-0.5 3.08333,-0.5 3.08333,0 3.08333,3.416667 0,1.791667 -0.375,6.916667 -0.66666,10.333333 -0.66666,16.208334 0,10.25 0.875,15.375 0.5,2.458333 0.75,3.416667 1.58333,-2.083334 2.625,-3.833334 1.08333,-1.791666 2.08333,-3.791666 2.04167,-4.166667 2.875,-6.458334 2.66667,-6.541667 4.20833,-13.75 1,-5.125001 2.29167,-7.333334 0.95833,-1.833333 2.91667,-3.916667 z"
             style="font-style:normal;font-variant:normal;font-weight:normal;font-stretch:normal;font-size:85.33333588px;font-family:Forte;-inkscape-font-specification:Forte;fill:#396639;fill-opacity:1;stroke:#000000;stroke-opacity:1;stroke-width:3.64724421;stroke-miterlimit:4;stroke-dasharray:none"
             id="path4681" />
        </g>
      </g>
      <flowRoot
         xml:space="preserve"
         id="flowRoot4656"
         style="fill:black;fill-opacity:1;stroke:none;font-family:sans-serif;font-style:normal;font-weight:normal;font-size:40px;line-height:1.25;letter-spacing:0px;word-spacing:0px"><flowRegion
           id="flowRegion4658"><rect
             id="rect4660"
             width="30"
             height="55"
             x="68"
             y="161.4534" /></flowRegion><flowPara
           id="flowPara4662"></flowPara></flowRoot>    </g>
  </g>
</svg>
